<?xml version="1.0" encoding="UTF-8" standalone="no"?>
<!-- Created with Inkscape (http://www.inkscape.org/) -->

<svg
   xmlns:dc="http://purl.org/dc/elements/1.1/"
   xmlns:cc="http://creativecommons.org/ns#"
   xmlns:rdf="http://www.w3.org/1999/02/22-rdf-syntax-ns#"
   xmlns:svg="http://www.w3.org/2000/svg"
   xmlns="http://www.w3.org/2000/svg"
   xmlns:sodipodi="http://sodipodi.sourceforge.net/DTD/sodipodi-0.dtd"
   xmlns:inkscape="http://www.inkscape.org/namespaces/inkscape"
   width="108.2402mm"
   height="36.080078mm"
   viewBox="0 0 108.2402 36.080078"
   version="1.1"
   id="svg2052"
   sodipodi:docname="osb.svg"
   inkscape:version="0.92.4 (5da689c313, 2019-01-14)">
  <defs
     id="defs2046" />
  <sodipodi:namedview
     id="base"
     pagecolor="#ffffff"
     bordercolor="#666666"
     borderopacity="1.0"
     inkscape:pageopacity="0.0"
     inkscape:pageshadow="2"
     inkscape:zoom="1.4"
     inkscape:cx="247.49924"
     inkscape:cy="-36.45201"
     inkscape:document-units="mm"
     inkscape:current-layer="text817-66-1-3"
     showgrid="false"
     fit-margin-top="0"
     fit-margin-left="0"
     fit-margin-right="0"
     fit-margin-bottom="0"
     inkscape:window-width="2529"
     inkscape:window-height="1411"
     inkscape:window-x="31"
     inkscape:window-y="0"
     inkscape:window-maximized="1" />
  <metadata
     id="metadata2049">
    <rdf:RDF>
      <cc:Work
         rdf:about="">
        <dc:format>image/svg+xml</dc:format>
        <dc:type
           rdf:resource="http://purl.org/dc/dcmitype/StillImage" />
        <dc:title></dc:title>
      </cc:Work>
    </rdf:RDF>
  </metadata>
  <g
     inkscape:label="Layer 1"
     inkscape:groupmode="layer"
     id="layer1"
     transform="translate(-51.713234,-123.24174)">
    <path
       style="fill:#ff0000;fill-opacity:0.99521532;stroke:none;stroke-width:0.69999999;stroke-miterlimit:4;stroke-dasharray:none;stroke-opacity:1"
       d="M 51.713234,123.24174 H 87.793301 V 159.3218 H 51.713234 Z"
       id="rect823-2-0-9"
       inkscape:connector-curvature="0" />
    <path
       style="fill:#0000ff;fill-opacity:0.99521532;stroke:none;stroke-width:0.69999999;stroke-miterlimit:4;stroke-dasharray:none;stroke-opacity:1"
       d="m 123.87337,123.24174 h 36.08006 v 36.08006 h -36.08006 z"
       id="rect823-3-8-8-7-1"
       inkscape:connector-curvature="0" />
    <g
       aria-label="Open"
       style="font-style:normal;font-variant:normal;font-weight:normal;font-stretch:normal;font-size:10.58333302px;line-height:1.25;font-family:'URW Gothic L';-inkscape-font-specification:'URW Gothic L, Normal';font-variant-ligatures:normal;font-variant-caps:normal;font-variant-numeric:normal;font-feature-settings:normal;text-align:start;letter-spacing:0px;word-spacing:0px;writing-mode:lr-tb;text-anchor:start;fill:#ffffff;fill-opacity:1;stroke:none;stroke-width:0.26458332"
       id="text817-66-1-3">
      <path
         d="m 62.470917,146.82993 c -1.707444,0 -3.026833,1.29611 -3.026833,2.97251 0,1.65312 1.334911,2.96474 3.019072,2.96474 1.668639,0 2.956983,-1.2961 2.956983,-2.9725 0,-1.6376 -1.311627,-2.96475 -2.949222,-2.96475 z m -0.01552,1.02447 c 1.063272,0 1.893711,0.85372 1.893711,1.9558 0,1.10208 -0.807156,1.93252 -1.893711,1.93252 -1.086556,0 -1.940278,-0.85372 -1.940278,-1.94028 0,-1.10984 0.8382,-1.94804 1.940278,-1.94804 z"
         style="font-style:normal;font-variant:normal;font-weight:bold;font-stretch:normal;font-size:7.76111126px;font-family:'URW Gothic L';-inkscape-font-specification:'URW Gothic L, Normal';font-variant-ligatures:normal;font-variant-caps:normal;font-variant-numeric:normal;font-feature-settings:normal;text-align:start;writing-mode:lr-tb;text-anchor:start;fill:#ffffff;stroke-width:0.26458332"
         id="path2865"
         inkscape:connector-curvature="0" />
      <path
         d="m 66.148471,154.1021 h 1.032228 v -1.83939 c 0.388055,0.34925 0.791633,0.50447 1.319389,0.50447 1.241778,0 2.149828,-0.96237 2.149828,-2.26624 0,-1.29611 -0.900289,-2.2352 -2.142067,-2.2352 -0.582083,0 -1.078795,0.21731 -1.412522,0.60537 v -0.50448 h -0.946856 z m 2.227439,-4.8895 c 0.6985,0 1.234017,0.56656 1.234017,1.31162 0,0.72955 -0.535517,1.29611 -1.218495,1.29611 -0.729544,0 -1.272822,-0.5588 -1.272822,-1.31163 0,-0.7373 0.543278,-1.2961 1.2573,-1.2961 z"
         style="font-style:normal;font-variant:normal;font-weight:bold;font-stretch:normal;font-size:7.76111126px;font-family:'URW Gothic L';-inkscape-font-specification:'URW Gothic L, Normal';font-variant-ligatures:normal;font-variant-caps:normal;font-variant-numeric:normal;font-feature-settings:normal;text-align:start;writing-mode:lr-tb;text-anchor:start;fill:#ffffff;stroke-width:0.26458332"
         id="path2867"
         inkscape:connector-curvature="0" />
      <path
         d="m 75.532867,150.97437 c 0.03104,-0.14746 0.03881,-0.2406 0.03881,-0.39582 0,-1.33491 -0.939094,-2.31281 -2.219677,-2.31281 -1.265062,0 -2.266245,1.00118 -2.266245,2.26624 0,1.2573 1.016706,2.2352 2.328333,2.2352 0.706262,0 1.2573,-0.25611 1.707445,-0.77611 0.162983,-0.20179 0.271639,-0.38029 0.341489,-0.5976 h -1.125361 c -0.263878,0.31044 -0.519995,0.42686 -0.946856,0.42686 -0.613128,0 -1.063272,-0.32597 -1.18745,-0.84596 z m -3.360561,-0.90805 c 0.162983,-0.55104 0.582083,-0.85372 1.195211,-0.85372 0.636411,0 1.055511,0.30268 1.18745,0.85372 z"
         style="font-style:normal;font-variant:normal;font-weight:bold;font-stretch:normal;font-size:7.76111126px;font-family:'URW Gothic L';-inkscape-font-specification:'URW Gothic L, Normal';font-variant-ligatures:normal;font-variant-caps:normal;font-variant-numeric:normal;font-feature-settings:normal;text-align:start;writing-mode:lr-tb;text-anchor:start;fill:#ffffff;stroke-width:0.26458332"
         id="path2869"
         inkscape:connector-curvature="0" />
      <path
         d="m 76.243979,152.66629 h 1.032227 v -2.02565 c 0,-0.57432 0.03881,-0.82268 0.170745,-1.03223 0.162983,-0.25611 0.434622,-0.39581 0.760589,-0.39581 0.263878,0 0.481189,0.0931 0.620889,0.27163 0.1397,0.18627 0.201789,0.50448 0.201789,1.0788 v 2.10326 h 1.032227 v -2.30505 c 0,-0.76835 -0.07761,-1.14088 -0.310444,-1.47461 -0.2794,-0.40358 -0.745067,-0.62089 -1.342672,-0.62089 -0.48895,0 -0.830439,0.14746 -1.210734,0.51223 v -0.41134 h -0.954616 z"
         style="font-style:normal;font-variant:normal;font-weight:bold;font-stretch:normal;font-size:7.76111126px;font-family:'URW Gothic L';-inkscape-font-specification:'URW Gothic L, Normal';font-variant-ligatures:normal;font-variant-caps:normal;font-variant-numeric:normal;font-feature-settings:normal;text-align:start;writing-mode:lr-tb;text-anchor:start;fill:#ffffff;stroke-width:0.26458332"
         id="path2871"
         inkscape:connector-curvature="0" />
    </g>
    <path
       style="fill:#008000;fill-opacity:0.99521532;stroke:none;stroke-width:0.69999999;stroke-miterlimit:4;stroke-dasharray:none;stroke-opacity:1"
       d="m 87.793297,123.24175 h 36.080063 v 36.08007 H 87.793297 Z"
       id="rect823-3-3-1"
       inkscape:connector-curvature="0" />
    <g
       aria-label="She"
       style="font-style:normal;font-variant:normal;font-weight:normal;font-stretch:normal;font-size:10.58333302px;line-height:1.25;font-family:'URW Gothic L';-inkscape-font-specification:'URW Gothic L, Normal';font-variant-ligatures:normal;font-variant-caps:normal;font-variant-numeric:normal;font-feature-settings:normal;text-align:start;letter-spacing:0px;word-spacing:0px;writing-mode:lr-tb;text-anchor:start;fill:#ffffff;fill-opacity:1;stroke:none;stroke-width:0.26458332"
       id="text817-03-9-6-3">
      <path
         d="m 99.47253,151.37901 c -0.0078,0.12417 -0.01552,0.22507 -0.01552,0.31044 0,0.3803 0.170744,0.79163 0.434622,1.03223 0.263878,0.24059 0.729538,0.39582 1.171928,0.39582 1.14088,0 2.18863,-1.03223 2.18863,-2.15759 0,-0.67522 -0.34925,-1.0788 -1.20297,-1.397 -0.44238,-0.16299 -0.48895,-0.18627 -0.58985,-0.25612 -0.1397,-0.10089 -0.23283,-0.25612 -0.23283,-0.39582 0,-0.38805 0.31821,-0.70626 0.70626,-0.70626 0.20955,0 0.38806,0.0854 0.45791,0.22507 0.0466,0.0931 0.0543,0.1397 0.0543,0.3803 h 1.09431 c 0.0233,-0.14746 0.0311,-0.27164 0.0311,-0.36477 0,-0.72179 -0.62089,-1.26506 -1.45133,-1.26506 -1.03999,0 -1.97908,0.90805 -1.97908,1.90923 0,0.62089 0.29492,1.02447 0.93909,1.28058 0.72954,0.29492 0.76835,0.31821 0.91581,0.44239 0.10866,0.10089 0.17075,0.26387 0.17075,0.44238 0,0.46567 -0.4191,0.8382 -0.93134,0.8382 -0.41134,0 -0.65969,-0.20955 -0.65969,-0.55104 0,-0.0466 0,-0.10089 0.008,-0.16298 z"
         style="font-style:italic;font-variant:normal;font-weight:bold;font-stretch:normal;font-size:7.76111126px;font-family:'URW Gothic L';-inkscape-font-specification:'URW Gothic L, Normal';font-variant-ligatures:normal;font-variant-caps:normal;font-variant-numeric:normal;font-feature-settings:normal;text-align:start;writing-mode:lr-tb;text-anchor:start;fill:#ffffff;stroke-width:0.26458332"
         id="path2857"
         inkscape:connector-curvature="0" />
      <path
         d="m 103.52795,153.0166 h 1.03223 l 0.40358,-2.18087 c 0.0776,-0.42686 0.17074,-0.68298 0.30268,-0.86925 0.20179,-0.26387 0.49671,-0.41133 0.8382,-0.41133 0.42686,0 0.67522,0.23283 0.67522,0.63641 0,0.16298 -0.0233,0.38029 -0.0699,0.62865 l -0.40358,2.19639 h 1.03223 l 0.45014,-2.42923 c 0.0543,-0.2794 0.0776,-0.52775 0.0776,-0.7373 0,-0.75283 -0.55103,-1.24178 -1.40476,-1.24178 -0.44238,0 -0.83044,0.13194 -1.1564,0.40358 l 0.3182,-1.73073 h -1.03222 z"
         style="font-style:italic;font-variant:normal;font-weight:bold;font-stretch:normal;font-size:7.76111126px;font-family:'URW Gothic L';-inkscape-font-specification:'URW Gothic L, Normal';font-variant-ligatures:normal;font-variant-caps:normal;font-variant-numeric:normal;font-feature-settings:normal;text-align:start;writing-mode:lr-tb;text-anchor:start;fill:#ffffff;stroke-width:0.26458332"
         id="path2859"
         inkscape:connector-curvature="0" />
      <path
         d="m 112.76841,151.32468 c 0.10089,-0.2406 0.15522,-0.58985 0.15522,-0.96238 0,-1.02447 -0.76059,-1.74625 -1.83939,-1.74625 -1.4358,0 -2.73191,1.26506 -2.73191,2.66982 0,1.0788 0.7994,1.83163 1.94804,1.83163 0.97014,0 1.85491,-0.52 2.32057,-1.37372 h -1.12536 c -0.29492,0.29492 -0.61312,0.42686 -1.04775,0.42686 -0.58984,0 -1.00894,-0.34925 -1.00894,-0.84596 z m -3.18982,-0.91581 c 0.20179,-0.50447 0.74507,-0.84596 1.34267,-0.84596 0.6597,0 1.00895,0.28716 1.03999,0.84596 z"
         style="font-style:italic;font-variant:normal;font-weight:bold;font-stretch:normal;font-size:7.76111126px;font-family:'URW Gothic L';-inkscape-font-specification:'URW Gothic L, Normal';font-variant-ligatures:normal;font-variant-caps:normal;font-variant-numeric:normal;font-feature-settings:normal;text-align:start;writing-mode:lr-tb;text-anchor:start;fill:#ffffff;stroke-width:0.26458332"
         id="path2861"
         inkscape:connector-curvature="0" />
    </g>
    <g
       aria-label="Bang"
       style="font-style:normal;font-variant:normal;font-weight:normal;font-stretch:normal;font-size:10.58333302px;line-height:1.25;font-family:'URW Gothic L';-inkscape-font-specification:'URW Gothic L, Normal';font-variant-ligatures:normal;font-variant-caps:normal;font-variant-numeric:normal;font-feature-settings:normal;text-align:start;letter-spacing:0px;word-spacing:0px;writing-mode:lr-tb;text-anchor:start;fill:#ffffff;fill-opacity:1;stroke:none;stroke-width:0.26458332"
       id="text817-1-2-1-6">
      <path
         d="m 131.81529,153.09085 h 1.52894 c 0.63641,0 1.10208,-0.10089 1.45133,-0.3182 0.47343,-0.28717 0.74507,-0.7994 0.74507,-1.38924 0,-0.35701 -0.1009,-0.70626 -0.2794,-0.9391 -0.16299,-0.21731 -0.32597,-0.32596 -0.6985,-0.48119 0.4579,-0.24059 0.63641,-0.54327 0.63641,-1.07879 0,-0.53552 -0.2406,-0.98566 -0.65194,-1.24954 -0.34149,-0.21731 -0.6985,-0.2794 -1.55222,-0.2794 h -1.17969 z m 1.06327,-1.0167 v -1.46685 h 0.50448 c 0.7373,0 1.08655,0.24059 1.08655,0.75282 0,0.49671 -0.3182,0.71403 -1.06327,0.71403 z m 0,-2.50684 v -1.17193 h 0.43463 c 0.55104,0 0.82267,0.18627 0.82267,0.58208 0,0.41134 -0.27163,0.58985 -0.91581,0.58985 z"
         style="font-style:normal;font-variant:normal;font-weight:bold;font-stretch:normal;font-size:7.76111126px;font-family:'URW Gothic L';-inkscape-font-specification:'URW Gothic L, Normal';font-variant-ligatures:normal;font-variant-caps:normal;font-variant-numeric:normal;font-feature-settings:normal;text-align:start;writing-mode:lr-tb;text-anchor:start;fill:#ffffff;stroke-width:0.26458332"
         id="path2848"
         inkscape:connector-curvature="0" />
      <path
         d="m 140.56267,148.7912 h -0.94685 v 0.57432 c -0.35702,-0.47343 -0.78388,-0.67522 -1.40477,-0.67522 -1.27282,0 -2.18863,0.95462 -2.18863,2.26625 0,1.2961 0.90805,2.2352 2.16535,2.2352 0.60537,0 1.01671,-0.19403 1.42805,-0.6597 v 0.5588 h 0.94685 z m -2.24296,0.84596 c 0.73731,0 1.26506,0.55104 1.26506,1.33491 0,0.31044 -0.12418,0.66745 -0.31044,0.88476 -0.20955,0.24836 -0.54328,0.38806 -0.9391,0.38806 -0.75283,0 -1.27282,-0.51223 -1.27282,-1.26506 0,-0.78387 0.51999,-1.34267 1.2573,-1.34267 z"
         style="font-style:normal;font-variant:normal;font-weight:bold;font-stretch:normal;font-size:7.76111126px;font-family:'URW Gothic L';-inkscape-font-specification:'URW Gothic L, Normal';font-variant-ligatures:normal;font-variant-caps:normal;font-variant-numeric:normal;font-feature-settings:normal;text-align:start;writing-mode:lr-tb;text-anchor:start;fill:#ffffff;stroke-width:0.26458332"
         id="path2850"
         inkscape:connector-curvature="0" />
      <path
         d="m 141.33223,153.09085 h 1.03223 v -2.02565 c 0,-0.57432 0.0388,-0.82268 0.17075,-1.03223 0.16298,-0.25611 0.43462,-0.39581 0.76058,-0.39581 0.26388,0 0.48119,0.0931 0.62089,0.27164 0.1397,0.18626 0.20179,0.50447 0.20179,1.07879 v 2.10326 h 1.03223 v -2.30505 c 0,-0.76835 -0.0776,-1.14088 -0.31044,-1.47461 -0.2794,-0.40358 -0.74507,-0.62089 -1.34268,-0.62089 -0.48895,0 -0.83044,0.14746 -1.21073,0.51223 v -0.41133 h -0.95462 z"
         style="font-style:normal;font-variant:normal;font-weight:bold;font-stretch:normal;font-size:7.76111126px;font-family:'URW Gothic L';-inkscape-font-specification:'URW Gothic L, Normal';font-variant-ligatures:normal;font-variant-caps:normal;font-variant-numeric:normal;font-feature-settings:normal;text-align:start;writing-mode:lr-tb;text-anchor:start;fill:#ffffff;stroke-width:0.26458332"
         id="path2852"
         inkscape:connector-curvature="0" />
      <path
         d="m 149.32315,148.7912 v 0.54327 c -0.31821,-0.43462 -0.78388,-0.64417 -1.40476,-0.64417 -1.2185,0 -2.11879,0.94686 -2.11879,2.21968 0,1.32715 0.88477,2.28177 2.11102,2.28177 0.60537,0 1.00895,-0.19403 1.41253,-0.66746 -0.0388,0.92357 -0.43463,1.37372 -1.20298,1.37372 -0.48118,0 -0.77611,-0.12418 -1.07879,-0.45791 h -1.17193 c 0.34925,0.86148 1.15641,1.36596 2.21192,1.36596 0.77611,0 1.38924,-0.27164 1.79282,-0.78388 0.30268,-0.39581 0.43462,-0.92357 0.43462,-1.74625 v -3.48473 z m -1.28835,0.84596 c 0.73731,0 1.24178,0.53551 1.24178,1.31939 0,0.77611 -0.48895,1.28834 -1.22626,1.28834 -0.7373,0 -1.21073,-0.50447 -1.21073,-1.28834 0,-0.79164 0.47343,-1.31939 1.19521,-1.31939 z"
         style="font-style:normal;font-variant:normal;font-weight:bold;font-stretch:normal;font-size:7.76111126px;font-family:'URW Gothic L';-inkscape-font-specification:'URW Gothic L, Normal';font-variant-ligatures:normal;font-variant-caps:normal;font-variant-numeric:normal;font-feature-settings:normal;text-align:start;writing-mode:lr-tb;text-anchor:start;fill:#ffffff;stroke-width:0.26458332"
         id="path2854"
         inkscape:connector-curvature="0" />
    </g>
    <g
       aria-label="#
"
       style="font-style:normal;font-variant:normal;font-weight:normal;font-stretch:normal;font-size:10.58333302px;line-height:1.25;font-family:'URW Gothic L';-inkscape-font-specification:'URW Gothic L, Normal';font-variant-ligatures:normal;font-variant-caps:normal;font-variant-numeric:normal;font-feature-settings:normal;text-align:start;letter-spacing:0px;word-spacing:0px;writing-mode:lr-tb;text-anchor:start;fill:#ffffff;fill-opacity:1;stroke:none;stroke-width:0.26458332"
       id="text817-0-6-9-8-4">
      <path
         d="m 104.23311,129.03129 -0.57292,4.30671 h -2.17311 v 1.9558 h 1.89654 l -0.23707,1.75825 h -2.17311 v 1.97555 h 1.91629 l -0.63218,4.60305 h 1.79776 l 0.61242,-4.60305 h 1.71873 l -0.63218,4.60305 h 1.778 l 0.63218,-4.60305 h 2.01507 v -1.97555 h -1.75825 l 0.23707,-1.75825 h 2.03482 v -1.9558 h -1.75824 l 0.57291,-4.30671 h -1.778 l -0.57291,4.30671 h -1.71874 l 0.57292,-4.30671 z m 0.94826,6.26251 h 1.69898 l -0.23707,1.75825 h -1.71873 z"
         style="font-style:normal;font-variant:normal;font-weight:bold;font-stretch:normal;font-size:19.75555611px;font-family:'URW Gothic L';-inkscape-font-specification:'URW Gothic L, Normal';font-variant-ligatures:normal;font-variant-caps:normal;font-variant-numeric:normal;font-feature-settings:normal;text-align:start;writing-mode:lr-tb;text-anchor:start;fill:#ffffff;stroke-width:0.26458332"
         id="path2845"
         inkscape:connector-curvature="0" />
    </g>
    <g
       aria-label="O
"
       style="font-style:normal;font-variant:normal;font-weight:normal;font-stretch:normal;font-size:10.58333302px;line-height:1.25;font-family:'URW Gothic L';-inkscape-font-specification:'URW Gothic L, Normal';font-variant-ligatures:normal;font-variant-caps:normal;font-variant-numeric:normal;font-feature-settings:normal;text-align:start;letter-spacing:0px;word-spacing:0px;writing-mode:lr-tb;text-anchor:start;fill:#ffffff;fill-opacity:1;stroke:none;stroke-width:0.26458332"
       id="text817-0-6-3-2-1-0">
      <path
         d="m 69.852044,128.77447 c -4.346222,0 -7.704667,3.29918 -7.704667,7.56638 0,4.20793 3.397956,7.54662 7.684911,7.54662 4.247445,0 7.526867,-3.29918 7.526867,-7.56638 0,-4.16842 -3.338689,-7.54662 -7.507111,-7.54662 z m -0.03951,2.60773 c 2.706511,0 4.820356,2.17311 4.820356,4.9784 0,2.80529 -2.054578,4.91913 -4.820356,4.91913 -2.765778,0 -4.938889,-2.17311 -4.938889,-4.93888 0,-2.82505 2.1336,-4.95865 4.938889,-4.95865 z"
         style="font-style:normal;font-variant:normal;font-weight:bold;font-stretch:normal;font-size:19.75555611px;font-family:'URW Gothic L';-inkscape-font-specification:'URW Gothic L, Normal';font-variant-ligatures:normal;font-variant-caps:normal;font-variant-numeric:normal;font-feature-settings:normal;text-align:start;writing-mode:lr-tb;text-anchor:start;fill:#ffffff;stroke-width:0.26458332"
         id="path2842"
         inkscape:connector-curvature="0" />
    </g>
    <g
       aria-label="!
"
       style="font-style:normal;font-variant:normal;font-weight:normal;font-stretch:normal;font-size:10.58333302px;line-height:1.25;font-family:'URW Gothic L';-inkscape-font-specification:'URW Gothic L, Normal';font-variant-ligatures:normal;font-variant-caps:normal;font-variant-numeric:normal;font-feature-settings:normal;text-align:start;letter-spacing:0px;word-spacing:0px;writing-mode:lr-tb;text-anchor:start;fill:#ffffff;fill-opacity:1;stroke:none;stroke-width:0.26458332"
       id="text817-0-6-4-6-0-6">
      <path
         d="m 139.7483,139.9166 h 2.62749 v -10.88531 h -2.62749 z m 0,3.71405 h 2.62749 v -2.52872 h -2.62749 z"
         style="font-style:normal;font-variant:normal;font-weight:bold;font-stretch:normal;font-size:19.75555611px;font-family:'URW Gothic L';-inkscape-font-specification:'URW Gothic L, Normal';font-variant-ligatures:normal;font-variant-caps:normal;font-variant-numeric:normal;font-feature-settings:normal;text-align:start;writing-mode:lr-tb;text-anchor:start;fill:#ffffff;stroke-width:0.26458332"
         id="path2839"
         inkscape:connector-curvature="0" />
    </g>
  </g>
</svg>
